<svg width="28" height="28" viewBox="0 0 28 28" fill="none" xmlns="http://www.w3.org/2000/svg">
<path d="M27.0667 16.6681C26.5144 19.365 25.1417 21.8251 23.1366 23.7113C21.1316 25.5975 18.5922 26.8175 15.8667 27.2041V24.5041C17.8797 24.1451 19.7474 23.2157 21.2478 21.8264C22.7482 20.4371 23.8182 18.6463 24.3307 16.6667L27.0667 16.6681ZM3.66933 16.6681C4.17628 18.6248 5.22809 20.3974 6.70252 21.78C8.17695 23.1626 10.0135 24.0985 11.9987 24.4787V27.1854C9.29988 26.7742 6.7921 25.5453 4.81349 23.6645C2.83488 21.7836 1.48062 19.3413 0.933328 16.6667H3.66933V16.6681ZM22 12.6667V15.3334H20.6667C19.2983 15.3334 17.9824 15.8593 16.9909 16.8024C15.9995 17.7454 15.4084 19.0335 15.34 20.4001L15.3333 20.6667V22.0001H12.6667V20.6667C12.6667 19.2984 12.1407 17.9824 11.1977 16.991C10.2546 15.9996 8.96661 15.4085 7.59999 15.3401L7.33333 15.3334H5.99999V12.6667H22ZM14 0.666748C20.9133 0.666748 26.5987 5.92941 27.2667 12.6667H24.584C24.2586 10.0893 23.0039 7.71911 21.0552 6.00098C19.1066 4.28285 16.5979 3.33485 14 3.33485C11.4021 3.33485 8.89342 4.28285 6.94476 6.00098C4.9961 7.71911 3.74137 10.0893 3.41599 12.6667H0.731995C1.40133 5.92941 7.08666 0.666748 14 0.666748Z" fill="white"/>
</svg>
